<?xml version="1.0" standalone="no"?>
<!DOCTYPE svg PUBLIC "-//W3C//DTD SVG 1.1//EN" "http://www.w3.org/Graphics/SVG/1.1/DTD/svg11.dtd" >
<svg xmlns="http://www.w3.org/2000/svg">
<metadata>Generated by IcoMoon</metadata>
<defs>
<font id="icon-fluid" horiz-adv-x="1024">
<font-face units-per-em="1024" ascent="960" descent="-64" />
<missing-glyph horiz-adv-x="1024" />
<glyph unicode="&#x20;" horiz-adv-x="512" d="" />
<glyph unicode="&#xe900;" glyph-name="zoom" d="M1010.347 65.707l-256 194.56c40.96 64.853 64.853 139.947 64.853 221.867 0 225.28-184.32 409.6-409.6 409.6s-409.6-184.32-409.6-409.6 184.32-409.6 409.6-409.6c119.467 0 225.28 51.2 300.373 133.12l259.413-194.56c6.827-3.413 13.653-6.827 20.48-6.827 10.24 0 20.48 3.413 27.307 13.653 10.24 13.653 6.827 37.547-6.827 47.787zM409.6 140.8c-187.733 0-341.333 153.6-341.333 341.333s153.6 341.333 341.333 341.333 341.333-153.6 341.333-341.333-153.6-341.333-341.333-341.333zM443.733 516.267h102.4v-68.267h-102.4v-102.4h-68.267v102.4h-102.4v68.267h102.4v102.4h68.267v-102.4z" />
<glyph unicode="&#xe901;" glyph-name="menu" d="M972.8 396.8h-921.6c-30.72 0-51.2 20.48-51.2 51.2s20.48 51.2 51.2 51.2h921.6c30.72 0 51.2-20.48 51.2-51.2s-20.48-51.2-51.2-51.2zM1024 755.2c0 30.72-20.48 51.2-51.2 51.2h-921.6c-30.72 0-51.2-20.48-51.2-51.2s20.48-51.2 51.2-51.2h921.6c30.72 0 51.2 20.48 51.2 51.2zM1024 140.8c0 30.72-20.48 51.2-51.2 51.2h-921.6c-30.72 0-51.2-20.48-51.2-51.2s20.48-51.2 51.2-51.2h921.6c30.72 0 51.2 20.48 51.2 51.2z" />
<glyph unicode="&#xe902;" glyph-name="previous" d="M345.6 32l-332.8 390.4c-6.4 6.4-6.4 12.8-6.4 19.2v0 0 0 0 0 0 0 0 0c0 6.4 0 12.8 6.4 19.2l332.8 390.4c12.8 19.2 32 19.2 44.8 6.4 19.2-12.8 19.2-32 6.4-44.8l-288-339.2h889.6c19.2 0 32-12.8 32-32s-12.8-32-32-32h-883.2l288-339.2c6.4-12.8 6.4-32-6.4-44.8-6.4-6.4-12.8-6.4-19.2-6.4s-19.2 6.4-32 12.8z" />
<glyph unicode="&#xe903;" glyph-name="next" d="M656 22.080c-6.4 0-12.8 0-19.2 6.4-12.8 12.8-12.8 32-6.4 44.8l288 339.2h-883.2c-19.2 0-32 12.8-32 32s12.8 32 32 32h889.6l-288 339.2c-12.8 12.8-12.8 32 6.4 44.8 12.8 12.8 32 12.8 44.8-6.4l332.8-390.4c6.4-6.4 6.4-12.8 6.4-19.2v0c0 0 0 0 0 0s0 0 0 0v0c0 0 0 0 0 0v0c0 0 0 0 0 0s0 0 0 0v0c0-6.4 0-12.8-6.4-19.2l-332.8-390.4c-12.8-6.4-25.6-12.8-32-12.8z" />
<glyph unicode="&#xe904;" glyph-name="bag" d="M705.384 669.26h-37.926v87.23c0 91.022-68.267 166.874-159.289 166.874-41.719 0-83.437-18.963-113.778-49.304s-45.511-72.059-45.511-117.57v-83.437h-37.926v83.437c0 53.096 18.963 102.4 56.889 144.119 37.926 37.926 87.23 60.681 140.326 60.681s106.193-22.756 140.326-60.681 56.889-91.022 56.889-144.119v-87.23zM845.71 642.712h-667.496l-64.474-709.215h800.237l-68.267 709.215zM212.347 604.786h599.23l56.889-633.363h-716.8l60.681 633.363zM310.955 536.519c0-11.378 7.585-18.963 18.963-18.963s18.963 7.585 18.963 18.963-7.585 18.963-18.963 18.963-18.963-11.378-18.963-18.963zM671.251 536.519c0-11.378 7.585-18.963 18.963-18.963s18.963 7.585 18.963 18.963-7.585 18.963-18.963 18.963-18.963-11.378-18.963-18.963z" />
<glyph unicode="&#xe905;" glyph-name="close" d="M601.241 502.218l-34.628 34.628 425.43 425.43 34.628-34.628-425.43-425.43zM1026.671-27.096l-989.372 989.372-34.628-34.628 989.372-989.372 34.628 34.628zM457.782 358.759l-34.628 34.628-425.43-425.43 34.628-34.628 425.43 425.43z" />
<glyph unicode="&#xe906;" glyph-name="facebook" d="M390.4-64v480h-128v172.8h128v147.2c0 115.2 76.8 224 249.6 224 38.4 0 83.2 0 121.6-6.4l-6.4-160c0 0-51.2 0-108.8 0-64 0-70.4-32-70.4-76.8v-128h185.6l-6.4-172.8h-179.2v-480h-185.6z" />
<glyph unicode="&#xe907;" glyph-name="instagram" d="M727.040 874.667c116.053 0 211.627-95.573 211.627-211.627v-430.080c0-116.053-95.573-211.627-211.627-211.627h-430.080c-116.053 0-211.627 95.573-211.627 211.627v430.080c0 116.053 95.573 211.627 211.627 211.627h430.080zM727.040 956.587h-430.080c-163.84 0-300.373-136.533-300.373-300.373v-430.080c0-163.84 136.533-300.373 300.373-300.373h430.080c163.84 0 300.373 136.533 300.373 300.373v436.907c-6.827 163.84-136.533 293.547-300.373 293.547zM781.653 642.56c-40.96 0-75.093 34.133-75.093 75.093s34.133 75.093 75.093 75.093c40.96 0 75.093-34.133 75.093-75.093 0-20.48-6.827-40.96-20.48-54.613s-34.133-20.48-54.613-20.48zM515.413 608.427c88.747 0 163.84-75.093 163.84-163.84s-75.093-163.84-163.84-163.84-163.84 75.093-163.84 163.84 68.267 163.84 163.84 163.84v0zM515.413 690.347c-136.533 0-245.76-109.227-245.76-245.76s109.227-245.76 245.76-245.76 245.76 109.227 245.76 245.76-116.053 245.76-245.76 245.76v0z" />
<glyph unicode="&#xe908;" glyph-name="pinterest" d="M339.2 569.6c0 38.4 12.8 76.8 32 108.8 19.2 25.6 51.2 44.8 83.2 44.8 25.6 0 44.8-6.4 64-25.6 12.8-19.2 19.2-38.4 19.2-64 0-19.2 0-38.4-6.4-57.6-6.4-25.6-12.8-51.2-25.6-83.2-6.4-32-19.2-57.6-19.2-76.8-6.4-32 0-57.6 19.2-83.2s51.2-38.4 76.8-32c57.6 0 115.2 38.4 140.8 96 38.4 70.4 57.6 147.2 51.2 230.4 0 64-19.2 121.6-64 166.4-51.2 44.8-115.2 70.4-185.6 64-83.2 0-166.4-25.6-224-89.6-51.2-51.2-83.2-128-83.2-204.8 0-44.8 12.8-83.2 38.4-121.6 6.4-6.4 12.8-19.2 12.8-32-6.4-12.8-6.4-32-12.8-44.8 0-6.4-6.4-12.8-12.8-12.8s-12.8 0-19.2 0c-38.4 12.8-70.4 44.8-89.6 83.2-25.6 44.8-32 96-32 147.2 0 38.4 6.4 70.4 19.2 108.8 6.4 32 25.6 64 51.2 96s51.2 64 89.6 89.6c38.4 25.6 76.8 51.2 121.6 64s102.4 19.2 153.6 19.2c51.2 0 108.8-6.4 160-25.6 44.8-19.2 89.6-44.8 121.6-76.8s57.6-70.4 76.8-108.8c19.2-38.4 25.6-83.2 25.6-134.4 6.4-108.8-25.6-211.2-89.6-300.8-57.6-76.8-140.8-121.6-236.8-115.2-32 0-64 6.4-89.6 19.2s-44.8 32-57.6 51.2c-25.6-96-38.4-147.2-44.8-166.4-19.2-57.6-51.2-115.2-89.6-166.4h-38.4c-12.8 64-6.4 134.4 6.4 198.4l76.8 332.8c-12.8 32-19.2 64-19.2 102.4z" />
<glyph unicode="&#xe909;" glyph-name="search" d="M397.241 253.793c-194.207 0-353.103 158.897-353.103 353.103s158.897 353.103 353.103 353.103 353.103-158.897 353.103-353.103-158.897-353.103-353.103-353.103zM397.241 915.862c-172.138 0-308.966-136.828-308.966-308.966s136.828-308.966 308.966-308.966 308.966 136.828 308.966 308.966-136.828 308.966-308.966 308.966zM979.862-33.103l-308.966 335.448-30.897-35.31 308.966-335.448 30.897 35.31z" />
<glyph unicode="&#xe90a;" glyph-name="twitter" d="M1024 774.4c-12.8-19.2-25.6-38.4-38.4-57.6-19.2-25.6-44.8-44.8-70.4-57.6 0-6.4 0-12.8 0-19.2 0-83.2-12.8-160-44.8-236.8-44.8-128-134.4-236.8-249.6-307.2-121.6-64-256-89.6-390.4-70.4-83.2 6.4-160 38.4-230.4 89.6 108.8-12.8 224 19.2 313.6 89.6-89.6 0-172.8 64-198.4 147.2 12.8-6.4 32-6.4 44.8 0 19.2 0 32 6.4 51.2 6.4-64 19.2-115.2 57.6-147.2 108.8-12.8 32-19.2 70.4-19.2 108.8 25.6-19.2 64-25.6 96-25.6-51.2 32-83.2 83.2-96 147.2 0 44.8 6.4 96 25.6 134.4 70.4-76.8 153.6-140.8 243.2-185.6 57.6-25.6 128-38.4 192-38.4-6.4 57.6 0 115.2 25.6 160 32 44.8 76.8 83.2 134.4 96 70.4 19.2 147.2-6.4 198.4-57.6 51.2 6.4 96 25.6 134.4 51.2-12.8-51.2-51.2-96-96-121.6 38.4 6.4 83.2 19.2 121.6 38.4v0z" />
<glyph unicode="&#xe90b;" glyph-name="youtube" d="M627.2 249.6v-121.6c0-25.6-6.4-38.4-19.2-38.4s-19.2 6.4-25.6 12.8v172.8c6.4 6.4 12.8 12.8 25.6 12.8s19.2-12.8 19.2-38.4v0zM819.2 249.6v-25.6h-51.2v25.6c0 25.6 6.4 38.4 25.6 38.4s25.6-12.8 25.6-38.4zM268.8 371.2h64v57.6h-179.2v-51.2h57.6v-326.4h57.6c0 0 0 320 0 320zM435.2 51.2h51.2v281.6h-51.2v-217.6c-12.8-19.2-19.2-25.6-32-25.6-6.4 0-12.8 6.4-12.8 12.8s0 12.8 0 19.2v211.2h-51.2v-224c0-12.8 0-25.6 6.4-44.8 6.4-12.8 19.2-25.6 32-19.2 25.6 0 44.8 12.8 57.6 32v-25.6zM678.4 134.4v115.2c0 19.2 0 38.4-6.4 57.6s-19.2 32-38.4 32c-19.2 0-38.4-12.8-51.2-32v121.6h-51.2v-377.6h51.2v25.6c12.8-19.2 32-32 51.2-32s38.4 12.8 38.4 32c6.4 19.2 6.4 38.4 6.4 57.6zM870.4 140.8v6.4h-51.2c0-12.8 0-25.6 0-32 0-12.8-12.8-19.2-25.6-19.2-19.2 0-25.6 12.8-25.6 38.4v51.2h102.4v57.6c0 25.6-6.4 44.8-12.8 64-25.6 32-76.8 38.4-108.8 12.8-6.4-6.4-6.4-6.4-12.8-12.8-12.8-19.2-19.2-44.8-19.2-64v-96c0-25.6 6.4-44.8 19.2-64s38.4-32 64-32c38.4 0 70.4 25.6 76.8 64-6.4 0-6.4 12.8-6.4 25.6v0zM524.8 659.2v121.6c0 25.6-6.4 38.4-25.6 38.4s-25.6-12.8-25.6-38.4v-121.6c0-25.6 6.4-38.4 25.6-38.4s25.6 12.8 25.6 38.4zM934.4 230.4c0-64 0-134.4-12.8-198.4-6.4-19.2-19.2-38.4-32-57.6-19.2-12.8-38.4-25.6-57.6-25.6-108.8-12.8-211.2-12.8-320-12.8s-211.2 0-320 12.8c-19.2 0-44.8 12.8-57.6 25.6-19.2 12.8-25.6 32-32 57.6-12.8 64-19.2 134.4-12.8 198.4 0 64 6.4 134.4 12.8 198.4 6.4 19.2 19.2 38.4 32 57.6 19.2 19.2 38.4 25.6 64 25.6 64 12.8 172.8 12.8 313.6 12.8s249.6-6.4 320-12.8c44.8-6.4 83.2-38.4 89.6-83.2 12.8-64 19.2-128 12.8-198.4v0zM364.8 960h57.6l-70.4-230.4v-153.6h-57.6v153.6c-6.4 44.8-19.2 83.2-32 121.6s-25.6 76.8-38.4 108.8h57.6l38.4-147.2 44.8 147.2zM576 768v-102.4c0-19.2 0-44.8-12.8-64-19.2-19.2-38.4-32-64-25.6-25.6 0-44.8 12.8-57.6 32-12.8 12.8-19.2 38.4-19.2 64v96c0 25.6 6.4 44.8 19.2 64s38.4 32 57.6 32c25.6 0 44.8-12.8 57.6-32 19.2-12.8 19.2-38.4 19.2-64v0zM768 864v-288h-51.2v32c-12.8-19.2-38.4-32-57.6-32-12.8 0-25.6 6.4-32 19.2s-6.4 25.6-6.4 44.8v224h51.2v-211.2c0-6.4 0-12.8 0-19.2s6.4-12.8 12.8-12.8c12.8 0 19.2 6.4 32 25.6v217.6h51.2z" />
<glyph unicode="&#xe90c;" glyph-name="user" d="M504.743 420.842c-146.922 0-271.583 120.209-271.583 271.583s120.209 271.583 271.583 271.583 271.583-120.209 271.583-271.583-120.209-271.583-271.583-271.583zM504.743 915.033c-124.661 0-227.061-102.4-227.061-227.061s102.4-227.061 227.061-227.061 227.061 102.4 227.061 227.061-102.4 227.061-227.061 227.061zM958.865-64.445h-890.435c-13.357 0-22.261 8.904-22.261 22.261v151.374c0 155.826 204.8 280.487 467.478 280.487s467.478-124.661 467.478-280.487v-151.374c0-13.357-13.357-22.261-22.261-22.261zM90.691-19.923h845.913v129.113c0 129.113-191.443 235.965-422.957 235.965s-422.957-106.852-422.957-235.965v-129.113z" />
<glyph unicode="&#xe90d;" glyph-name="plus" d="M571.733 388.267v-401.067c0-25.6-34.133-51.2-59.733-51.2s-51.2 25.6-51.2 51.2v401.067h-401.067c-34.133 0-59.733 34.133-59.733 59.733s25.6 51.2 51.2 51.2h401.067v401.067c0 34.133 34.133 59.733 59.733 59.733s51.2-25.6 51.2-51.2v-401.067h401.067c34.133 0 59.733-34.133 59.733-59.733s-25.6-51.2-51.2-51.2l-401.067-8.533z" />
<glyph unicode="&#xe90e;" glyph-name="check" d="M932.267 821.333l-236.8-238.933-326.4-326.4-279.467 279.467-89.6-89.6 320-320v-2.133l49.067-49.067 654.933 654.933z" />
<glyph unicode="&#xe90f;" glyph-name="pause" d="M426.667-31.467v959.2c0 17.867-14.4 32.267-32.533 32.267h-190.933c-18.133 0-32.533-14.4-32.533-32.267v-959.2c0-17.867 14.4-32.533 32.533-32.533h190.933c18.133 0 32.533 14.4 32.533 32.533zM820.8 960h-190.933c-17.867 0-32.533-14.4-32.533-32.267v-959.2c0-17.867 14.4-32.533 32.533-32.533h190.933c17.867 0 32.533 14.4 32.533 32.533v959.2c0 17.867-14.4 32.267-32.533 32.267z" />
<glyph unicode="&#xe910;" glyph-name="youtube-new" d="M1003.52 693.76c-13.653 40.96-47.787 81.92-88.747 88.747-129.707 13.653-266.24 20.48-402.773 20.48s-266.24-6.827-402.773-20.48c-40.96-6.827-75.093-40.96-88.747-88.747-13.653-81.92-20.48-163.84-20.48-245.76s6.827-163.84 20.48-245.76c13.653-40.96 47.787-75.093 88.747-88.747 129.707-13.653 266.24-20.48 402.773-20.48s266.24 6.827 402.773 20.48c40.96 13.653 81.92 47.787 88.747 88.747 13.653 81.92 20.48 163.84 20.48 245.76s-6.827 163.84-20.48 245.76v0zM409.6 297.813v300.373l266.24-150.187-266.24-150.187z" />
<glyph unicode="&#xe911;" glyph-name="free-shipping" d="M126.42 635.523h126.42v160.132c0 16.856 12.642 33.712 33.712 33.712 0 0 0 0 0 0h703.737c16.856 0 33.712-12.642 33.712-33.712v-568.889c0-16.856-12.642-33.712-33.712-33.712h-33.712v568.889h-636.313v-370.831c-16.856 4.214-33.712 4.214-50.568 4.214h-12.642v181.202h-130.634c-33.712 0-63.21-29.498-63.21-63.21 0 0 0 0 0 0v-33.712h126.42v-63.21h-126.42v-160.132h75.852c33.712 71.638 117.992 105.35 193.844 75.852 33.712-12.642 58.996-42.14 75.852-75.852h219.128c21.070 54.782 75.852 88.494 134.848 88.494 75.852-4.214 134.848-67.424 134.848-143.276s-67.424-134.848-143.276-134.848c-71.638 4.214-126.42 54.782-134.848 126.42h-202.272c-8.428-80.066-84.28-134.848-160.132-122.206-63.21 8.428-113.778 58.996-122.206 122.206h-101.136c-16.856 0-33.712 12.642-33.712 29.498v286.551c0 71.638 58.996 130.634 126.42 126.42zM758.519 134.058c29.498 0 54.782 12.642 71.638 37.926 12.642 25.284 12.642 54.782 0 80.066-16.856 25.284-42.14 37.926-71.638 37.926s-54.782-12.642-71.638-37.926c-12.642-25.284-12.642-54.782 0-80.066 16.856-29.498 46.354-42.14 71.638-37.926zM273.909 134.058c42.14 4.214 71.638 37.926 71.638 80.066-4.214 42.14-37.926 71.638-80.066 71.638-37.926-4.214-71.638-33.712-71.638-75.852 0-46.354 37.926-80.066 80.066-75.852z" />
<glyph unicode="&#xe912;" glyph-name="minus" d="M59.733 507.733h913.067c25.6 0 51.2-34.133 51.2-59.733s-25.6-51.2-51.2-51.2h-913.067c-34.133-8.533-59.733 25.6-59.733 51.2 0 34.133 25.6 59.733 59.733 59.733z" />
<glyph unicode="&#xe913;" glyph-name="google-plus" d="M618.523 492.671c6.872-20.617 6.872-34.362 6.872-54.98 6.872-164.94-116.832-302.389-281.772-316.134-6.872 0-20.617 0-27.49 0-178.685 6.872-323.007 151.195-316.134 329.879 0 171.812 144.322 316.134 316.134 316.134 82.47 0 158.067-27.49 213.047-82.47l-82.47-89.342c-34.362 34.362-82.47 54.98-130.577 54.98-109.96 0-206.174-89.342-206.174-206.174 0-109.96 89.342-206.174 206.174-206.174 89.342-6.872 164.94 54.98 185.557 137.45h-185.557v116.832h302.389zM927.785 478.926v96.215h-96.215v-96.215h-96.215v-96.215h96.215v-96.215h96.215v96.215h96.215v96.215h-96.215z" />
<glyph unicode="&#xe914;" glyph-name="arrow-up" d="M1024 221.451c0-13.593-4.531-27.186-18.124-40.779-22.655-22.655-58.903-22.655-81.558 0l-412.319 416.85-412.319-407.788c-22.655-22.655-58.903-22.655-81.558 0s-22.655 58.903 0 81.558l453.097 444.035c22.655 22.655 58.903 22.655 81.558 0l453.097-457.628c13.593-9.062 18.124-22.655 18.124-36.248z" />
<glyph unicode="&#xe915;" glyph-name="arrow-down" d="M0 674.549c0 13.593 4.531 27.186 18.124 40.779 22.655 22.655 58.903 22.655 81.558 0l412.319-416.85 412.319 407.788c22.655 22.655 58.903 22.655 81.558 0s22.655-58.903 0-81.558l-453.097-444.035c-22.655-22.655-58.903-22.655-81.558 0l-453.097 457.628c-13.593 9.062-18.124 22.655-18.124 36.248z" />
<glyph unicode="&#xe916;" glyph-name="arrow-right" d="M285.451-64c-13.593 0-27.186 4.531-40.779 18.124-22.655 22.655-22.655 58.903 0 81.558l416.85 412.319-407.788 412.319c-22.655 22.655-22.655 58.903 0 81.558s58.903 22.655 81.558 0l444.035-453.097c22.655-22.655 22.655-58.903 0-81.558l-457.628-453.097c-9.062-13.593-22.655-18.124-36.248-18.124z" />
<glyph unicode="&#xe917;" glyph-name="arrow-left" d="M738.549 960c13.593 0 27.186-4.531 40.779-18.124 22.655-22.655 22.655-58.903 0-81.558l-416.85-412.319 407.788-412.319c22.655-22.655 22.655-58.903 0-81.558s-58.903-22.655-81.558 0l-444.035 453.097c-22.655 22.655-22.655 58.903 0 81.558l457.628 453.097c9.062 13.593 22.655 18.124 36.248 18.124z" />
<glyph unicode="&#xe918;" glyph-name="play" d="M909.867 509.6l-742.4 441.867c-9.067 5.333-18.4 8.533-29.067 8.533-29.067 0-52.8-24-52.8-53.333h-0.267v-917.333h0.267c0-29.333 23.733-53.333 52.8-53.333 10.933 0 20 3.733 29.867 9.067l741.6 441.333c17.6 14.667 28.8 36.8 28.8 61.6s-11.2 46.667-28.8 61.6z" />
<glyph unicode="&#xe919;" glyph-name="filters" d="M30.118 779.294h457.788c12.047-66.259 72.282-120.471 144.565-120.471s132.518 54.212 144.565 120.471h216.847c18.071 0 30.118 12.047 30.118 30.118s-12.047 30.118-30.118 30.118h-210.824c-12.047 66.259-72.282 120.471-144.565 120.471s-138.541-54.212-150.588-120.471h-457.788c-18.071 0-30.118-12.047-30.118-30.118s12.047-30.118 30.118-30.118zM632.471 899.765c48.188 0 90.353-42.165 90.353-90.353s-42.165-90.353-90.353-90.353-90.353 42.165-90.353 90.353 42.165 90.353 90.353 90.353zM30.118 417.882h90.353c12.047-66.259 72.282-120.471 144.565-120.471s132.518 54.212 144.565 120.471h578.259c24.094 0 36.141 12.047 36.141 30.118s-12.047 30.118-30.118 30.118h-578.259c-12.047 66.259-72.282 120.471-144.565 120.471s-132.518-54.212-150.588-120.471h-90.353c-18.071 0-30.118-12.047-30.118-30.118s12.047-30.118 30.118-30.118zM271.059 538.353c48.188 0 90.353-42.165 90.353-90.353s-42.165-90.353-90.353-90.353c-48.188 0-90.353 42.165-90.353 90.353 0 0 0 0 0 0s0 0 0 0c0 48.188 42.165 90.353 90.353 90.353zM993.882 116.706h-30.118c-12.047 66.259-72.282 120.471-144.565 120.471s-132.518-54.212-144.565-120.471h-644.518c-18.071 0-30.118-12.047-30.118-30.118s12.047-30.118 30.118-30.118h638.494c12.047-66.259 72.282-120.471 144.565-120.471s132.518 54.212 144.565 120.471h30.118c18.071 0 30.118 12.047 30.118 30.118s-6.024 30.118-24.094 30.118zM813.176-3.765c-48.188 0-90.353 42.165-90.353 90.353s42.165 90.353 90.353 90.353c48.188 0 90.353-42.165 90.353-90.353 0 0 0 0 0 0s0 0 0 0c0-48.188-42.165-90.353-90.353-90.353z" />
<glyph unicode="&#xe91a;" glyph-name="quickview" d="M512 64c-320 0-499.2 349.867-507.733 366.933-4.267 12.8-4.267 25.6 0 38.4 8.533 12.8 187.733 362.667 507.733 362.667s499.2-349.867 507.733-366.933c4.267-12.8 4.267-25.6 0-38.4-8.533-12.8-187.733-362.667-507.733-362.667zM89.6 448c38.4-68.267 192-298.667 422.4-298.667s379.733 230.4 422.4 298.667c-38.4 68.267-192 298.667-422.4 298.667s-379.733-230.4-422.4-298.667zM512 277.333c-93.867 0-170.667 76.8-170.667 170.667s76.8 170.667 170.667 170.667c93.867 0 170.667-76.8 170.667-170.667s-76.8-170.667-170.667-170.667zM512 533.333c-46.933 0-85.333-38.4-85.333-85.333s38.4-85.333 85.333-85.333c46.933 0 85.333 38.4 85.333 85.333s-38.4 85.333-85.333 85.333z" />
<glyph unicode="&#xe91b;" glyph-name="email" d="M898.977 864.744h-773.953c0 0 0 0 0 0-65.488 0-119.070-53.581-125.023-119.070 0 0 0 0 0 0s0-5.953 0-5.953v-577.488c0-71.442 59.535-125.023 125.023-125.023h768c71.442 0 125.023 59.535 125.023 125.023v577.488c5.953 65.488-53.581 125.023-119.070 125.023zM125.023 805.209h768c29.767 0 59.535-23.814 65.488-53.581l-446.512-315.535-452.465 315.535c11.907 29.767 35.721 53.581 65.488 53.581zM898.977 90.791h-773.953c-35.721 0-65.488 29.767-65.488 65.488v523.907l434.605-303.628c5.953-5.953 11.907-5.953 17.86-5.953s11.907 0 17.86 5.953l434.605 303.628v-517.953c0-41.674-29.767-71.442-65.488-71.442z" />
<glyph unicode="&#xe91c;" glyph-name="location" d="M512-64c-111.304 0-378.435 382.887-378.435 645.565 0 209.252 169.183 378.435 378.435 378.435s378.435-169.183 378.435-378.435c0-262.678-267.13-645.565-378.435-645.565zM512 915.478c-182.539 0-333.913-151.374-333.913-333.913 0-271.583 267.13-601.043 333.913-601.043s333.913 329.461 333.913 601.043c0 182.539-151.374 333.913-333.913 333.913zM512 381.217c-111.304 0-200.348 89.043-200.348 200.348s89.043 200.348 200.348 200.348 200.348-89.043 200.348-200.348-89.043-200.348-200.348-200.348zM512 737.391c-84.591 0-155.826-71.235-155.826-155.826s71.235-155.826 155.826-155.826 155.826 71.235 155.826 155.826-71.235 155.826-155.826 155.826z" />
<glyph unicode="&#xe91d;" glyph-name="phone" d="M654.47 960h-284.939c-80.139 0-146.922-66.783-146.922-146.922v-725.704c0-84.591 66.783-151.374 146.922-151.374h280.487c80.139 0 146.922 66.783 146.922 146.922v730.157c4.452 80.139-62.33 146.922-142.47 146.922zM369.53 915.478h280.487c62.33 0 106.852-44.522 106.852-102.4v-31.165h-489.739v31.165c0 57.878 44.522 102.4 102.4 102.4zM756.87 737.391v-578.783h-489.739v578.783h489.739zM654.47-19.478h-284.939c-57.878 0-102.4 44.522-102.4 102.4v31.165h489.739v-31.165c0-57.878-44.522-102.4-102.4-102.4z" />
<glyph unicode="&#xe91e;" glyph-name="time" d="M512-64c-279.814 0-512 232.186-512 512s232.186 512 512 512 512-232.186 512-512-232.186-512-512-512zM512 900.465c-250.047 0-452.465-202.419-452.465-452.465s202.419-452.465 452.465-452.465c250.047 0 452.465 202.419 452.465 452.465s-202.419 452.465-452.465 452.465zM768 209.86c5.953 11.907 0 29.767-11.907 41.674l-273.86 136.93v416.744c0 17.86-11.907 29.767-29.767 29.767s-29.767-17.86-29.767-35.721v-434.605c0-11.907 5.953-23.814 17.86-23.814l291.721-142.884c5.953 0 5.953-5.953 11.907-5.953s17.86 5.953 23.814 17.86z" />
</font>
</defs>
</svg>
